# xmcd
#
# Track frame offsets: 
#        183
#        13290
#        25578
#        45985
#        63830
#        74793
#        92410
#        104650
#        120390
#        134740
#        148380
#
# Disc length: 2148 seconds
#
# Revision: 15
# Processed by: cddbd v1.5.2PL0 Copyright (c) Steve Scherf et al.
# Submitted via: ExactAudioCopy v0.95b4
#
DISCID=a008620b
DTITLE=Hank Williams, Jr - Greatest Hits Volume 3
DYEAR=1989
DGENRE=Country
TTITLE0=I'm for Love
TTITLE1=This Ain't Dallas
TTITLE2=Ain't Misbehavin'
TTITLE3=Country State of Mind
TTITLE4=Mind Your Own Business
TTITLE5=My Name Is Bocephus (Live Version)
TTITLE6=Born To Boogie
TTITLE7=Young Country
TTITLE8=Heaven Can't Be Found
TTITLE9=Finders Are Keepers
TTITLE10=There's a Tear In My Beer
EXTD=LABEL =Warner Bros. Records Inc.\nID =925834-2\nUPC =none\nCOP
EXTD=YRIGHT =1989
EXTT0=
EXTT1=
EXTT2=
EXTT3=
EXTT4=
EXTT5=
EXTT6=
EXTT7=
EXTT8=
EXTT9=
EXTT10=
PLAYORDER=
